<svg width="240" height="50" viewBox="0 0 240 50" fill="none" xmlns="http://www.w3.org/2000/svg">
<path d="M100 0.5H120C125.523 0.5 130 4.97715 130 10.5V30.5C130 36.0228 125.523 40.5 120 40.5H110V30.5H120V10.5H100V0.5Z" fill="#DD4F2F"/>
<path d="M57.5507 26.4547C57.5507 27.154 57.4275 27.9117 57.1811 28.7276C56.9347 29.5305 56.5327 30.2817 55.9751 30.981C55.4304 31.6674 54.7107 32.2438 53.8159 32.71C52.9341 33.1762 51.8577 33.4093 50.5868 33.4093H41.4638V28.611H50.5868C51.2742 28.611 51.8058 28.4038 52.1819 27.9894C52.558 27.562 52.746 27.0375 52.746 26.4158C52.746 25.7553 52.5321 25.2373 52.1041 24.8617C51.6891 24.4861 51.1834 24.2983 50.5868 24.2983H41.4638C40.7765 24.2983 40.2448 24.512 39.8688 24.9394C39.4927 25.3538 39.3047 25.8719 39.3047 26.4935V33.5453C39.3047 34.2188 39.5121 34.7433 39.9271 35.1189C40.3551 35.4944 40.8803 35.6822 41.5027 35.6822H50.5868V40.5H41.4638C40.7636 40.5 40.0049 40.377 39.1879 40.1309C38.3839 39.8848 37.6318 39.4898 36.9315 38.9459C36.2442 38.389 35.6671 37.6702 35.2003 36.7895C34.7334 35.8959 34.5 34.8145 34.5 33.5453V26.4547C34.5 25.7553 34.6232 25.0042 34.8696 24.2012C35.116 23.3853 35.5115 22.6341 36.0562 21.9477C36.6138 21.2484 37.3335 20.6656 38.2153 20.1994C39.1101 19.7331 40.193 19.5 41.4638 19.5H50.5868C51.2871 19.5 52.0393 19.623 52.8433 19.8691C53.6603 20.1152 54.4124 20.5167 55.0997 21.0735C55.8 21.6175 56.3836 22.3363 56.8504 23.2299C57.3173 24.1105 57.5507 25.1855 57.5507 26.4547Z" fill="white"/>
<path d="M79.3564 24.5509H67.977C67.2897 24.5509 66.771 24.7257 66.4208 25.0754C66.0707 25.4121 65.8956 25.9107 65.8956 26.5712V40.5H60.8381V26.5712C60.8381 25.7035 60.9483 24.9265 61.1688 24.2401C61.3892 23.5537 61.681 22.9514 62.0441 22.4334C62.4202 21.9024 62.8481 21.4556 63.3279 21.093C63.8078 20.7174 64.307 20.413 64.8258 20.1799C65.3574 19.9468 65.8891 19.7784 66.4208 19.6748C66.9655 19.5583 67.4712 19.5 67.9381 19.5H79.3564V24.5509Z" fill="white"/>
<path d="M105.5 33.4093C105.5 34.2771 105.39 35.0606 105.169 35.7599C104.949 36.4463 104.657 37.055 104.294 37.586C103.931 38.1041 103.509 38.5509 103.03 38.9265C102.55 39.2891 102.044 39.587 101.512 39.8201C100.994 40.0532 100.462 40.228 99.9173 40.3446C99.3856 40.4482 98.8798 40.5 98.4 40.5H89.277C88.5767 40.5 87.8116 40.377 86.9816 40.1309C86.1517 39.8848 85.3801 39.4833 84.6669 38.9265C83.9666 38.3566 83.3765 37.6249 82.8967 36.7313C82.4299 35.8247 82.1964 34.7174 82.1964 33.4093V26.5712C82.1964 25.2761 82.4299 24.1818 82.8967 23.2882C83.3765 22.3816 83.9666 21.6499 84.6669 21.093C85.3801 20.5231 86.1517 20.1152 86.9816 19.8691C87.8116 19.623 88.5767 19.5 89.277 19.5H98.4C99.6968 19.5 100.799 19.7331 101.707 20.1994C102.615 20.6656 103.347 21.2549 103.905 21.9672C104.463 22.6665 104.865 23.4306 105.111 24.2595C105.37 25.0883 105.5 25.8589 105.5 26.5712V33.4093ZM100.442 26.6101C100.442 25.9107 100.267 25.3927 99.9173 25.056C99.5671 24.7192 99.0614 24.5509 98.4 24.5509H89.3159C88.6416 24.5509 88.1293 24.7257 87.7792 25.0754C87.429 25.4121 87.254 25.9107 87.254 26.5712V33.4093C87.254 34.0698 87.429 34.5749 87.7792 34.9246C88.1293 35.2743 88.6416 35.4491 89.3159 35.4491H98.4C99.0873 35.4491 99.5995 35.2743 99.9367 34.9246C100.274 34.5749 100.442 34.0698 100.442 33.4093V26.6101Z" fill="white"/>
<path d="M139.609 15.0665H134.5V10.5H139.609V15.0665ZM139.609 40.3864H134.5V19.3804H139.609V40.3864Z" fill="white"/>
<path d="M167.633 42.4073C167.633 43.2753 167.522 44.0526 167.299 44.7392C167.076 45.4387 166.781 46.0476 166.415 46.5658C166.048 47.0969 165.622 47.5438 165.137 47.9066C164.653 48.2823 164.142 48.5867 163.604 48.8199C163.08 49.0531 162.543 49.2215 161.993 49.3251C161.456 49.4417 160.945 49.5 160.46 49.5H151.243V44.4477H160.46C161.155 44.4477 161.672 44.2728 162.013 43.923C162.353 43.5732 162.524 43.068 162.524 42.4073V26.4537C162.524 25.793 162.353 25.2942 162.013 24.9574C161.672 24.6076 161.155 24.4327 160.46 24.4327H151.243C150.615 24.4327 150.117 24.6271 149.75 25.0157C149.383 25.3914 149.2 25.8707 149.2 26.4537V33.2937C149.2 33.9544 149.376 34.4596 149.73 34.8094C150.084 35.1592 150.601 35.3341 151.283 35.3341H160.46V40.3864H151.243C150.759 40.3864 150.248 40.3346 149.711 40.2309C149.173 40.1144 148.636 39.9395 148.099 39.7063C147.575 39.4731 147.071 39.1751 146.586 38.8124C146.101 38.4367 145.675 37.9898 145.309 37.4716C144.942 36.9405 144.647 36.3316 144.424 35.645C144.201 34.9454 144.09 34.1617 144.09 33.2937V26.4537C144.09 25.9743 144.143 25.4691 144.247 24.938C144.365 24.4068 144.542 23.8822 144.778 23.364C145.014 22.8328 145.315 22.3276 145.682 21.8483C146.062 21.369 146.514 20.9479 147.038 20.5852C147.575 20.2225 148.191 19.931 148.885 19.7108C149.58 19.4905 150.366 19.3804 151.243 19.3804H160.46C160.945 19.3804 161.456 19.4387 161.993 19.5553C162.543 19.6589 163.08 19.8274 163.604 20.0605C164.142 20.2937 164.653 20.5982 165.137 20.9738C165.622 21.3366 166.048 21.7835 166.415 22.3146C166.781 22.8328 167.076 23.4352 167.299 24.1218C167.522 24.8084 167.633 25.5857 167.633 26.4537V42.4073Z" fill="white"/>
<path d="M177.498 15.0665H172.389V10.5H177.498V15.0665ZM177.498 40.3864H172.389V19.3804H177.498V40.3864Z" fill="white"/>
<path d="M201.729 24.4327H192.807V40.3864H187.639V24.4327H180.996V19.3804H187.639V12.5209H192.807V19.3804H201.729V24.4327Z" fill="white"/>
<path d="M225.803 33.4297C225.803 34.1293 225.678 34.8871 225.429 35.7033C225.18 36.5065 224.774 37.2578 224.211 37.9574C223.661 38.644 222.933 39.2205 222.029 39.6868C221.139 40.1532 220.051 40.3864 218.767 40.3864H209.551C208.843 40.3864 208.077 40.2633 207.251 40.0172C206.439 39.7711 205.679 39.3759 204.972 38.8318C204.277 38.2748 203.694 37.5558 203.223 36.6749C202.751 35.781 202.515 34.6993 202.515 33.4297C202.515 32.7302 202.64 31.9723 202.889 31.1562C203.137 30.3401 203.537 29.5887 204.087 28.9021C204.651 28.2025 205.378 27.6196 206.269 27.1532C207.173 26.6868 208.267 26.4537 209.551 26.4537H218.767V31.2728H209.551C208.856 31.2728 208.319 31.4865 207.939 31.9141C207.559 32.3286 207.369 32.8468 207.369 33.4686C207.369 34.1293 207.585 34.6475 208.018 35.0232C208.463 35.3859 208.987 35.5673 209.59 35.5673H218.767C219.462 35.5673 219.999 35.36 220.379 34.9454C220.759 34.5309 220.949 34.0127 220.949 33.3909V26.3371C220.949 25.6764 220.739 25.1517 220.32 24.7631C219.914 24.3744 219.396 24.1801 218.767 24.1801H207.546V19.3804H218.767C219.475 19.3804 220.235 19.5035 221.047 19.7496C221.872 19.9958 222.632 20.3974 223.327 20.9544C224.034 21.4985 224.624 22.2175 225.095 23.1114C225.567 23.9923 225.803 25.0675 225.803 26.3371V33.4297Z" fill="white"/>
<path d="M239.5 40.3864H237.22C236.487 40.3864 235.701 40.2633 234.862 40.0172C234.037 39.7711 233.264 39.3695 232.543 38.8124C231.823 38.2424 231.227 37.5105 230.755 36.6166C230.283 35.7098 230.047 34.6021 230.047 33.2937V10.5H235.157V33.2937C235.157 33.9155 235.353 34.4143 235.746 34.79C236.14 35.1527 236.631 35.3341 237.22 35.3341H239.5V40.3864Z" fill="white"/>
<path d="M0.0271216 10.4991V0.5H22.9045C26.4814 0.500016 32.1933 4.89744 29.0993 11.5572L14.9931 30.4979H30V32.2375V40.5L7.12305 40.5C3.36528 40.5 -2.32246 35.5559 1.00503 29.5L15.0344 10.5021L0.0271216 10.4991Z" fill="#DD4F2F"/>
</svg>
