<svg width="28" height="28" viewBox="0 0 28 28" fill="none" xmlns="http://www.w3.org/2000/svg">
<path fill-rule="evenodd" clip-rule="evenodd" d="M21.8337 22.6456C24.188 20.511 25.6667 17.4282 25.6667 14C25.6667 7.55667 20.4433 2.33333 14 2.33333H12.8333V0.0479194C13.218 0.0161832 13.6071 0 14 0C21.732 0 28 6.26801 28 14C28 18.0484 26.2816 21.6956 23.5343 24.2517L21.8337 22.6456ZM19.9249 24.0523C18.1883 25.0781 16.1629 25.6667 14 25.6667C7.55667 25.6667 2.33333 20.4433 2.33333 14C2.33333 8.77609 5.76671 4.35408 10.5 2.86743V0.441061C4.46171 1.99521 0 7.47656 0 14C0 21.732 6.26801 28 14 28C16.8352 28 19.4736 27.1572 21.6784 25.7084L19.9249 24.0523Z" fill="#0C0A08"/>
<path d="M14 0.583313V14L23.9167 22.75" stroke="#0C0A08" stroke-width="2.33333"/>
</svg>
