<svg width="28" height="28" viewBox="0 0 28 28" fill="none" xmlns="http://www.w3.org/2000/svg">
<path d="M5.83333 25.6667C5.19167 25.6667 4.64237 25.4383 4.18542 24.9813C3.72847 24.5243 3.5 23.975 3.5 23.3334V9.33335C3.5 8.69169 3.72847 8.14239 4.18542 7.68544C4.64237 7.22849 5.19167 7.00002 5.83333 7.00002H8.16667C8.16667 5.38614 8.73542 4.01044 9.87292 2.87294C11.0104 1.73544 12.3861 1.16669 14 1.16669C15.6138 1.16669 16.9896 1.73544 18.1271 2.87294C19.2646 4.01044 19.8333 5.38614 19.8333 7.00002H22.1667C22.8083 7.00002 23.3576 7.22849 23.8146 7.68544C24.2716 8.14239 24.5 8.69169 24.5 9.33335V23.3334C24.5 23.975 24.2716 24.5243 23.8146 24.9813C23.3576 25.4383 22.8083 25.6667 22.1667 25.6667H5.83333ZM5.83333 23.3334H22.1667V9.33335H5.83333V23.3334ZM14 16.3334C15.6138 16.3334 16.9896 15.7646 18.1271 14.6271C19.2646 13.4896 19.8333 12.1139 19.8333 10.5H17.5C17.5 11.4722 17.1597 12.2987 16.4792 12.9792C15.7986 13.6597 14.9722 14 14 14C13.0278 14 12.2013 13.6597 11.5208 12.9792C10.8403 12.2987 10.5 11.4722 10.5 10.5H8.16667C8.16667 12.1139 8.73542 13.4896 9.87292 14.6271C11.0104 15.7646 12.3861 16.3334 14 16.3334ZM10.5 7.00002H17.5C17.5 6.0278 17.1597 5.20141 16.4792 4.52085C15.7986 3.8403 14.9722 3.50002 14 3.50002C13.0278 3.50002 12.2013 3.8403 11.5208 4.52085C10.8403 5.20141 10.5 6.0278 10.5 7.00002Z" fill="#0C0A08"/>
</svg>
