<svg width="28" height="28" viewBox="0 0 28 28" fill="none" xmlns="http://www.w3.org/2000/svg">
<g clip-path="url(#clip0_543_829)">
<path d="M19.4063 19.2547C20.4213 19.1672 21.2065 18.2747 21.1563 17.2084C21.1015 16.1421 20.2277 15.2857 19.1625 15.2857H19.0913C18.5627 15.3046 18.0632 15.5326 17.7027 15.9196C17.3422 16.3066 17.1501 16.8209 17.1687 17.3496C17.2037 17.9084 17.4323 18.3634 17.745 18.6947C16.5223 21.0724 14.6872 22.8201 11.9058 24.2889C10.0357 25.2666 8.06048 25.6352 6.13782 25.3739C4.53015 25.1464 3.27248 24.4289 2.50248 23.2751C1.34982 21.5262 1.24482 19.6397 2.20498 17.7521C2.90498 16.3871 3.95382 15.3919 4.65382 14.9019C4.44269 14.3159 4.27883 13.7139 4.16382 13.1017C-1.01268 16.8094 -0.48535 21.8774 1.08732 24.2726C2.25865 26.0202 4.65382 27.1379 7.27532 27.1379C7.97532 27.1379 8.71032 27.0866 9.42548 26.9116C13.972 26.0377 17.4148 23.3112 19.39 19.2909L19.4063 19.2547ZM25.6457 14.8844C22.939 11.7017 18.9513 9.95405 14.406 9.95405H13.811C13.5158 9.30772 12.8345 8.90522 12.0633 8.90522H12.0108C10.9107 8.90522 10.0532 9.85022 10.0893 10.9504C10.1243 11.9981 11.0157 12.8731 12.082 12.8731H12.1683C12.5465 12.8584 12.9126 12.7353 13.2227 12.5183C13.5328 12.3012 13.7739 11.9996 13.9172 11.6492H14.5647C17.2585 11.6492 19.8088 12.4356 22.134 13.9732C23.9155 15.1457 25.193 16.6834 25.9105 18.5197C26.5382 20.0224 26.5043 21.4912 25.858 22.7162C24.8605 24.6377 23.1817 25.6527 20.9627 25.6527C19.5638 25.6527 18.2012 25.2152 17.5012 24.9014C17.0812 25.2491 16.3812 25.8266 15.8748 26.1766C17.4125 26.8742 18.9688 27.2767 20.4715 27.2767C23.8805 27.2767 26.4145 25.3552 27.377 23.5014C28.4247 21.4037 28.3383 17.8734 25.662 14.8494L25.6457 14.8844ZM7.57165 19.8824C7.60665 20.9312 8.49682 21.8051 9.56432 21.8051H9.63432C9.89693 21.7988 10.1556 21.7401 10.3953 21.6325C10.6349 21.5249 10.8506 21.3705 11.0297 21.1783C11.2088 20.9862 11.3477 20.7602 11.4383 20.5136C11.5288 20.267 11.5692 20.0048 11.557 19.7424C11.557 18.6924 10.6482 17.8209 9.58182 17.8209H9.51182C9.44182 17.8209 9.33682 17.8209 9.24815 17.8547C7.79798 15.4071 7.18548 12.7832 7.41415 9.95405C7.55415 7.82139 8.25415 5.96756 9.51065 4.42989C10.5607 3.11856 12.5358 2.46989 13.8822 2.43722C17.6575 2.36606 19.2313 7.07006 19.3527 8.94022L21.1003 9.46522C20.6978 3.72989 17.1337 0.723389 13.7247 0.723389C10.5233 0.723389 7.57165 3.04856 6.38165 6.45756C4.75648 11.0017 5.82282 15.3732 7.81665 18.8697C7.64165 19.0972 7.53665 19.4986 7.57165 19.8824Z" fill="black"/>
</g>
<defs>
<clipPath id="clip0_543_829">
<rect width="28" height="28" fill="white"/>
</clipPath>
</defs>
</svg>
