<svg width="28" height="28" viewBox="0 0 28 28" fill="none" xmlns="http://www.w3.org/2000/svg">
<path d="M6.12467 9.04171C7.73551 9.04171 9.04134 7.73587 9.04134 6.12504C9.04134 4.51421 7.73551 3.20837 6.12467 3.20837C4.51384 3.20837 3.20801 4.51421 3.20801 6.12504C3.20801 7.73587 4.51384 9.04171 6.12467 9.04171Z" stroke="black" stroke-width="2" stroke-linecap="round" stroke-linejoin="round"/>
<path d="M13.9997 9.04171C15.6105 9.04171 16.9163 7.73587 16.9163 6.12504C16.9163 4.51421 15.6105 3.20837 13.9997 3.20837C12.3888 3.20837 11.083 4.51421 11.083 6.12504C11.083 7.73587 12.3888 9.04171 13.9997 9.04171Z" stroke="black" stroke-width="2" stroke-linecap="round" stroke-linejoin="round"/>
<path d="M13.9997 16.9167C15.6105 16.9167 16.9163 15.6109 16.9163 14C16.9163 12.3892 15.6105 11.0834 13.9997 11.0834C12.3888 11.0834 11.083 12.3892 11.083 14C11.083 15.6109 12.3888 16.9167 13.9997 16.9167Z" stroke="black" stroke-width="2" stroke-linecap="round" stroke-linejoin="round"/>
<path d="M13.9997 24.7917C15.6105 24.7917 16.9163 23.4859 16.9163 21.875C16.9163 20.2642 15.6105 18.9584 13.9997 18.9584C12.3888 18.9584 11.083 20.2642 11.083 21.875C11.083 23.4859 12.3888 24.7917 13.9997 24.7917Z" stroke="black" stroke-width="2" stroke-linecap="round" stroke-linejoin="round"/>
<path d="M21.8747 24.7917C23.4855 24.7917 24.7913 23.4859 24.7913 21.875C24.7913 20.2642 23.4855 18.9584 21.8747 18.9584C20.2638 18.9584 18.958 20.2642 18.958 21.875C18.958 23.4859 20.2638 24.7917 21.8747 24.7917Z" stroke="black" stroke-width="2" stroke-linecap="round" stroke-linejoin="round"/>
<path d="M6.12467 11.0834C6.89822 11.0834 7.64009 11.3907 8.18707 11.9376C8.73405 12.4846 9.04134 13.2265 9.04134 14V21.875C9.04134 22.6486 8.73405 23.3905 8.18707 23.9374C7.64009 24.4844 6.89822 24.7917 6.12467 24.7917C5.35113 24.7917 4.60926 24.4844 4.06228 23.9374C3.5153 23.3905 3.20801 22.6486 3.20801 21.875V14C3.20801 13.2265 3.5153 12.4846 4.06228 11.9376C4.60926 11.3907 5.35113 11.0834 6.12467 11.0834ZM21.8747 3.20837C22.6482 3.20837 23.3901 3.51566 23.9371 4.06265C24.4841 4.60963 24.7913 5.35149 24.7913 6.12504V14C24.7913 14.7736 24.4841 15.5155 23.9371 16.0624C23.3901 16.6094 22.6482 16.9167 21.8747 16.9167C21.1011 16.9167 20.3593 16.6094 19.8123 16.0624C19.2653 15.5155 18.958 14.7736 18.958 14V6.12504C18.958 5.35149 19.2653 4.60963 19.8123 4.06265C20.3593 3.51566 21.1011 3.20837 21.8747 3.20837Z" stroke="black" stroke-width="2" stroke-linecap="round" stroke-linejoin="round"/>
</svg>
